<svg width="380" height="68" viewBox="0 0 380 68" fill="none" xmlns="http://www.w3.org/2000/svg">
<g filter="url(#filter0_d_108_14)">
<rect x="10" width="360" height="48" rx="10" fill="#02A28F" shape-rendering="crispEdges"/>
<path d="M35.66 31V17H41.72C42.9733 17 44.0533 17.2067 44.96 17.62C45.8667 18.02 46.5667 18.6 47.06 19.36C47.5533 20.12 47.8 21.0267 47.8 22.08C47.8 23.12 47.5533 24.02 47.06 24.78C46.5667 25.54 45.8667 26.1267 44.96 26.54C44.0533 26.94 42.9733 27.14 41.72 27.14H37.46L38.9 25.68V31H35.66ZM38.9 26.04L37.46 24.5H41.54C42.54 24.5 43.2867 24.2867 43.78 23.86C44.2733 23.4333 44.52 22.84 44.52 22.08C44.52 21.3067 44.2733 20.7067 43.78 20.28C43.2867 19.8533 42.54 19.64 41.54 19.64H37.46L38.9 18.1V26.04ZM54.9936 31.16C53.8469 31.16 52.8269 30.92 51.9336 30.44C51.0536 29.96 50.3536 29.3067 49.8336 28.48C49.3269 27.64 49.0736 26.6867 49.0736 25.62C49.0736 24.54 49.3269 23.5867 49.8336 22.76C50.3536 21.92 51.0536 21.2667 51.9336 20.8C52.8269 20.32 53.8469 20.08 54.9936 20.08C56.1269 20.08 57.1403 20.32 58.0336 20.8C58.9269 21.2667 59.6269 21.9133 60.1336 22.74C60.6403 23.5667 60.8936 24.5267 60.8936 25.62C60.8936 26.6867 60.6403 27.64 60.1336 28.48C59.6269 29.3067 58.9269 29.96 58.0336 30.44C57.1403 30.92 56.1269 31.16 54.9936 31.16ZM54.9936 28.6C55.5136 28.6 55.9803 28.48 56.3936 28.24C56.8069 28 57.1336 27.66 57.3736 27.22C57.6136 26.7667 57.7336 26.2333 57.7336 25.62C57.7336 24.9933 57.6136 24.46 57.3736 24.02C57.1336 23.58 56.8069 23.24 56.3936 23C55.9803 22.76 55.5136 22.64 54.9936 22.64C54.4736 22.64 54.0069 22.76 53.5936 23C53.1803 23.24 52.8469 23.58 52.5936 24.02C52.3536 24.46 52.2336 24.9933 52.2336 25.62C52.2336 26.2333 52.3536 26.7667 52.5936 27.22C52.8469 27.66 53.1803 28 53.5936 28.24C54.0069 28.48 54.4736 28.6 54.9936 28.6ZM66.5991 31.16C65.6791 31.16 64.7924 31.0533 63.9391 30.84C63.0991 30.6133 62.4324 30.3333 61.9391 30L62.9791 27.76C63.4724 28.0667 64.0524 28.32 64.7191 28.52C65.3991 28.7067 66.0657 28.8 66.7191 28.8C67.4391 28.8 67.9457 28.7133 68.2391 28.54C68.5457 28.3667 68.6991 28.1267 68.6991 27.82C68.6991 27.5667 68.5791 27.38 68.3391 27.26C68.1124 27.1267 67.8057 27.0267 67.4191 26.96C67.0324 26.8933 66.6057 26.8267 66.1391 26.76C65.6857 26.6933 65.2257 26.6067 64.7591 26.5C64.2924 26.38 63.8657 26.2067 63.4791 25.98C63.0924 25.7533 62.7791 25.4467 62.5391 25.06C62.3124 24.6733 62.1991 24.1733 62.1991 23.56C62.1991 22.88 62.3924 22.28 62.7791 21.76C63.1791 21.24 63.7524 20.8333 64.4991 20.54C65.2457 20.2333 66.1391 20.08 67.1791 20.08C67.9124 20.08 68.6591 20.16 69.4191 20.32C70.1791 20.48 70.8124 20.7133 71.3191 21.02L70.2791 23.24C69.7591 22.9333 69.2324 22.7267 68.6991 22.62C68.1791 22.5 67.6724 22.44 67.1791 22.44C66.4857 22.44 65.9791 22.5333 65.6591 22.72C65.3391 22.9067 65.1791 23.1467 65.1791 23.44C65.1791 23.7067 65.2924 23.9067 65.5191 24.04C65.7591 24.1733 66.0724 24.28 66.4591 24.36C66.8457 24.44 67.2657 24.5133 67.7191 24.58C68.1857 24.6333 68.6524 24.72 69.1191 24.84C69.5857 24.96 70.0057 25.1333 70.3791 25.36C70.7657 25.5733 71.0791 25.8733 71.3191 26.26C71.5591 26.6333 71.6791 27.1267 71.6791 27.74C71.6791 28.4067 71.4791 29 71.0791 29.52C70.6791 30.0267 70.0991 30.4267 69.3391 30.72C68.5924 31.0133 67.6791 31.16 66.5991 31.16ZM78.0041 31.16C76.7374 31.16 75.7507 30.84 75.0441 30.2C74.3374 29.5467 73.9841 28.58 73.9841 27.3V17.86H77.1041V27.26C77.1041 27.7133 77.2241 28.0667 77.4641 28.32C77.7041 28.56 78.0307 28.68 78.4441 28.68C78.9374 28.68 79.3574 28.5467 79.7041 28.28L80.5441 30.48C80.2241 30.7067 79.8374 30.88 79.3841 31C78.9441 31.1067 78.4841 31.16 78.0041 31.16ZM72.3241 22.88V20.48H79.7841V22.88H72.3241ZM85.9155 31.16C84.9955 31.16 84.1088 31.0533 83.2555 30.84C82.4155 30.6133 81.7488 30.3333 81.2555 30L82.2955 27.76C82.7888 28.0667 83.3688 28.32 84.0355 28.52C84.7155 28.7067 85.3821 28.8 86.0355 28.8C86.7555 28.8 87.2621 28.7133 87.5555 28.54C87.8621 28.3667 88.0155 28.1267 88.0155 27.82C88.0155 27.5667 87.8955 27.38 87.6555 27.26C87.4288 27.1267 87.1221 27.0267 86.7355 26.96C86.3488 26.8933 85.9221 26.8267 85.4555 26.76C85.0021 26.6933 84.5421 26.6067 84.0755 26.5C83.6088 26.38 83.1821 26.2067 82.7955 25.98C82.4088 25.7533 82.0955 25.4467 81.8555 25.06C81.6288 24.6733 81.5155 24.1733 81.5155 23.56C81.5155 22.88 81.7088 22.28 82.0955 21.76C82.4955 21.24 83.0688 20.8333 83.8155 20.54C84.5621 20.2333 85.4555 20.08 86.4955 20.08C87.2288 20.08 87.9755 20.16 88.7355 20.32C89.4955 20.48 90.1288 20.7133 90.6355 21.02L89.5955 23.24C89.0755 22.9333 88.5488 22.7267 88.0155 22.62C87.4955 22.5 86.9888 22.44 86.4955 22.44C85.8021 22.44 85.2955 22.5333 84.9755 22.72C84.6555 22.9067 84.4955 23.1467 84.4955 23.44C84.4955 23.7067 84.6088 23.9067 84.8355 24.04C85.0755 24.1733 85.3888 24.28 85.7755 24.36C86.1621 24.44 86.5821 24.5133 87.0355 24.58C87.5021 24.6333 87.9688 24.72 88.4355 24.84C88.9021 24.96 89.3221 25.1333 89.6955 25.36C90.0821 25.5733 90.3955 25.8733 90.6355 26.26C90.8755 26.6333 90.9955 27.1267 90.9955 27.74C90.9955 28.4067 90.7955 29 90.3955 29.52C89.9955 30.0267 89.4155 30.4267 88.6555 30.72C87.9088 31.0133 86.9955 31.16 85.9155 31.16ZM104.945 31.16C104.038 31.16 103.245 30.96 102.565 30.56C101.885 30.16 101.351 29.5533 100.965 28.74C100.591 27.9133 100.405 26.8733 100.405 25.62C100.405 24.3533 100.585 23.3133 100.945 22.5C101.305 21.6867 101.825 21.08 102.505 20.68C103.185 20.28 103.998 20.08 104.945 20.08C105.958 20.08 106.865 20.3133 107.665 20.78C108.478 21.2333 109.118 21.8733 109.585 22.7C110.065 23.5267 110.305 24.5 110.305 25.62C110.305 26.7533 110.065 27.7333 109.585 28.56C109.118 29.3867 108.478 30.0267 107.665 30.48C106.865 30.9333 105.958 31.16 104.945 31.16ZM98.5845 34.88V20.24H101.565V22.44L101.505 25.64L101.705 28.82V34.88H98.5845ZM104.405 28.6C104.925 28.6 105.385 28.48 105.785 28.24C106.198 28 106.525 27.66 106.765 27.22C107.018 26.7667 107.145 26.2333 107.145 25.62C107.145 24.9933 107.018 24.46 106.765 24.02C106.525 23.58 106.198 23.24 105.785 23C105.385 22.76 104.925 22.64 104.405 22.64C103.885 22.64 103.418 22.76 103.005 23C102.591 23.24 102.265 23.58 102.025 24.02C101.785 24.46 101.665 24.9933 101.665 25.62C101.665 26.2333 101.785 26.7667 102.025 27.22C102.265 27.66 102.591 28 103.005 28.24C103.418 28.48 103.885 28.6 104.405 28.6ZM117.513 31.16C116.366 31.16 115.346 30.92 114.453 30.44C113.573 29.96 112.873 29.3067 112.353 28.48C111.846 27.64 111.593 26.6867 111.593 25.62C111.593 24.54 111.846 23.5867 112.353 22.76C112.873 21.92 113.573 21.2667 114.453 20.8C115.346 20.32 116.366 20.08 117.513 20.08C118.646 20.08 119.66 20.32 120.553 20.8C121.446 21.2667 122.146 21.9133 122.653 22.74C123.16 23.5667 123.413 24.5267 123.413 25.62C123.413 26.6867 123.16 27.64 122.653 28.48C122.146 29.3067 121.446 29.96 120.553 30.44C119.66 30.92 118.646 31.16 117.513 31.16ZM117.513 28.6C118.033 28.6 118.5 28.48 118.913 28.24C119.326 28 119.653 27.66 119.893 27.22C120.133 26.7667 120.253 26.2333 120.253 25.62C120.253 24.9933 120.133 24.46 119.893 24.02C119.653 23.58 119.326 23.24 118.913 23C118.5 22.76 118.033 22.64 117.513 22.64C116.993 22.64 116.526 22.76 116.113 23C115.7 23.24 115.366 23.58 115.113 24.02C114.873 24.46 114.753 24.9933 114.753 25.62C114.753 26.2333 114.873 26.7667 115.113 27.22C115.366 27.66 115.7 28 116.113 28.24C116.526 28.48 116.993 28.6 117.513 28.6ZM131.859 31.16C130.952 31.16 130.159 30.96 129.479 30.56C128.799 30.16 128.265 29.5533 127.879 28.74C127.505 27.9133 127.319 26.8733 127.319 25.62C127.319 24.3533 127.499 23.3133 127.859 22.5C128.219 21.6867 128.739 21.08 129.419 20.68C130.099 20.28 130.912 20.08 131.859 20.08C132.872 20.08 133.779 20.3133 134.579 20.78C135.392 21.2333 136.032 21.8733 136.499 22.7C136.979 23.5267 137.219 24.5 137.219 25.62C137.219 26.7533 136.979 27.7333 136.499 28.56C136.032 29.3867 135.392 30.0267 134.579 30.48C133.779 30.9333 132.872 31.16 131.859 31.16ZM125.499 34.88V20.24H128.479V22.44L128.419 25.64L128.619 28.82V34.88H125.499ZM131.319 28.6C131.839 28.6 132.299 28.48 132.699 28.24C133.112 28 133.439 27.66 133.679 27.22C133.932 26.7667 134.059 26.2333 134.059 25.62C134.059 24.9933 133.932 24.46 133.679 24.02C133.439 23.58 133.112 23.24 132.699 23C132.299 22.76 131.839 22.64 131.319 22.64C130.799 22.64 130.332 22.76 129.919 23C129.505 23.24 129.179 23.58 128.939 24.02C128.699 24.46 128.579 24.9933 128.579 25.62C128.579 26.2333 128.699 26.7667 128.939 27.22C129.179 27.66 129.505 28 129.919 28.24C130.332 28.48 130.799 28.6 131.319 28.6ZM143.847 31.16C142.954 31.16 142.154 30.9867 141.447 30.64C140.754 30.2933 140.214 29.7667 139.827 29.06C139.441 28.34 139.247 27.4267 139.247 26.32V20.24H142.367V25.86C142.367 26.7533 142.554 27.4133 142.927 27.84C143.314 28.2533 143.854 28.46 144.547 28.46C145.027 28.46 145.454 28.36 145.827 28.16C146.201 27.9467 146.494 27.6267 146.707 27.2C146.921 26.76 147.027 26.2133 147.027 25.56V20.24H150.147V31H147.187V28.04L147.727 28.9C147.367 29.6467 146.834 30.2133 146.127 30.6C145.434 30.9733 144.674 31.16 143.847 31.16ZM153.038 31V16.16H156.158V31H153.038ZM165.653 31V28.9L165.453 28.44V24.68C165.453 24.0133 165.247 23.4933 164.833 23.12C164.433 22.7467 163.813 22.56 162.973 22.56C162.4 22.56 161.833 22.6533 161.273 22.84C160.727 23.0133 160.26 23.2533 159.873 23.56L158.753 21.38C159.34 20.9667 160.047 20.6467 160.873 20.42C161.7 20.1933 162.54 20.08 163.393 20.08C165.033 20.08 166.307 20.4667 167.213 21.24C168.12 22.0133 168.573 23.22 168.573 24.86V31H165.653ZM162.373 31.16C161.533 31.16 160.813 31.02 160.213 30.74C159.613 30.4467 159.153 30.0533 158.833 29.56C158.513 29.0667 158.353 28.5133 158.353 27.9C158.353 27.26 158.507 26.7 158.813 26.22C159.133 25.74 159.633 25.3667 160.313 25.1C160.993 24.82 161.88 24.68 162.973 24.68H165.833V26.5H163.313C162.58 26.5 162.073 26.62 161.793 26.86C161.527 27.1 161.393 27.4 161.393 27.76C161.393 28.16 161.547 28.48 161.853 28.72C162.173 28.9467 162.607 29.06 163.153 29.06C163.673 29.06 164.14 28.94 164.553 28.7C164.967 28.4467 165.267 28.08 165.453 27.6L165.933 29.04C165.707 29.7333 165.293 30.26 164.693 30.62C164.093 30.98 163.32 31.16 162.373 31.16ZM171.397 31V20.24H174.377V23.28L173.957 22.4C174.277 21.64 174.79 21.0667 175.497 20.68C176.204 20.28 177.064 20.08 178.077 20.08V22.96C177.944 22.9467 177.824 22.94 177.717 22.94C177.61 22.9267 177.497 22.92 177.377 22.92C176.524 22.92 175.83 23.1667 175.297 23.66C174.777 24.14 174.517 24.8933 174.517 25.92V31H171.397ZM185.194 31.16C183.967 31.16 182.887 30.92 181.954 30.44C181.034 29.96 180.321 29.3067 179.814 28.48C179.307 27.64 179.054 26.6867 179.054 25.62C179.054 24.54 179.301 23.5867 179.794 22.76C180.301 21.92 180.987 21.2667 181.854 20.8C182.721 20.32 183.701 20.08 184.794 20.08C185.847 20.08 186.794 20.3067 187.634 20.76C188.487 21.2 189.161 21.84 189.654 22.68C190.147 23.5067 190.394 24.5 190.394 25.66C190.394 25.78 190.387 25.92 190.374 26.08C190.361 26.2267 190.347 26.3667 190.334 26.5H181.594V24.68H188.694L187.494 25.22C187.494 24.66 187.381 24.1733 187.154 23.76C186.927 23.3467 186.614 23.0267 186.214 22.8C185.814 22.56 185.347 22.44 184.814 22.44C184.281 22.44 183.807 22.56 183.394 22.8C182.994 23.0267 182.681 23.3533 182.454 23.78C182.227 24.1933 182.114 24.6867 182.114 25.26V25.74C182.114 26.3267 182.241 26.8467 182.494 27.3C182.761 27.74 183.127 28.08 183.594 28.32C184.074 28.5467 184.634 28.66 185.274 28.66C185.847 28.66 186.347 28.5733 186.774 28.4C187.214 28.2267 187.614 27.9667 187.974 27.62L189.634 29.42C189.141 29.98 188.521 30.4133 187.774 30.72C187.027 31.0133 186.167 31.16 185.194 31.16ZM196.091 31.16C195.171 31.16 194.285 31.0533 193.431 30.84C192.591 30.6133 191.925 30.3333 191.431 30L192.471 27.76C192.965 28.0667 193.545 28.32 194.211 28.52C194.891 28.7067 195.558 28.8 196.211 28.8C196.931 28.8 197.438 28.7133 197.731 28.54C198.038 28.3667 198.191 28.1267 198.191 27.82C198.191 27.5667 198.071 27.38 197.831 27.26C197.605 27.1267 197.298 27.0267 196.911 26.96C196.525 26.8933 196.098 26.8267 195.631 26.76C195.178 26.6933 194.718 26.6067 194.251 26.5C193.785 26.38 193.358 26.2067 192.971 25.98C192.585 25.7533 192.271 25.4467 192.031 25.06C191.805 24.6733 191.691 24.1733 191.691 23.56C191.691 22.88 191.885 22.28 192.271 21.76C192.671 21.24 193.245 20.8333 193.991 20.54C194.738 20.2333 195.631 20.08 196.671 20.08C197.405 20.08 198.151 20.16 198.911 20.32C199.671 20.48 200.305 20.7133 200.811 21.02L199.771 23.24C199.251 22.9333 198.725 22.7267 198.191 22.62C197.671 22.5 197.165 22.44 196.671 22.44C195.978 22.44 195.471 22.5333 195.151 22.72C194.831 22.9067 194.671 23.1467 194.671 23.44C194.671 23.7067 194.785 23.9067 195.011 24.04C195.251 24.1733 195.565 24.28 195.951 24.36C196.338 24.44 196.758 24.5133 197.211 24.58C197.678 24.6333 198.145 24.72 198.611 24.84C199.078 24.96 199.498 25.1333 199.871 25.36C200.258 25.5733 200.571 25.8733 200.811 26.26C201.051 26.6333 201.171 27.1267 201.171 27.74C201.171 28.4067 200.971 29 200.571 29.52C200.171 30.0267 199.591 30.4267 198.831 30.72C198.085 31.0133 197.171 31.16 196.091 31.16Z" fill="white"/>
</g>
<defs>
<filter id="filter0_d_108_14" x="0" y="0" width="380" height="68" filterUnits="userSpaceOnUse" color-interpolation-filters="sRGB">
<feFlood flood-opacity="0" result="BackgroundImageFix"/>
<feColorMatrix in="SourceAlpha" type="matrix" values="0 0 0 0 0 0 0 0 0 0 0 0 0 0 0 0 0 0 127 0" result="hardAlpha"/>
<feOffset dy="10"/>
<feGaussianBlur stdDeviation="5"/>
<feComposite in2="hardAlpha" operator="out"/>
<feColorMatrix type="matrix" values="0 0 0 0 0 0 0 0 0 0 0 0 0 0 0 0 0 0 0.1 0"/>
<feBlend mode="normal" in2="BackgroundImageFix" result="effect1_dropShadow_108_14"/>
<feBlend mode="normal" in="SourceGraphic" in2="effect1_dropShadow_108_14" result="shape"/>
</filter>
</defs>
</svg>
